<svg width="800" height="600" xmlns="http://www.w3.org/2000/svg">
  <rect width="800" height="600" fill="#1a1a2e"/>
  <rect x="100" y="100" width="600" height="400" rx="15" fill="#293045"/>
  <text x="400" y="200" font-family="Arial" font-size="32" fill="#ffffff" text-anchor="middle">Enterprise RAG</text>
  <text x="400" y="250" font-family="Arial" font-size="18" fill="#a0a0c0" text-anchor="middle">Retrieval-Augmented Generation for enterprise knowledge</text>
  
  <!-- Database icons -->
  <rect x="200" y="300" width="80" height="120" rx="5" fill="#6C63FF"/>
  <rect x="215" y="320" width="50" height="10" fill="#293045"/>
  <rect x="215" y="340" width="50" height="10" fill="#293045"/>
  <rect x="215" y="360" width="50" height="10" fill="#293045"/>
  
  <!-- Document flow -->
  <path d="M290,350 L350,350" stroke="#f5f5f5" stroke-width="3" stroke-dasharray="5,5"/>
  
  <!-- AI Processing -->
  <rect x="360" y="300" width="100" height="100" rx="50" fill="#41416b"/>
  <text x="410" y="350" font-family="Arial" font-size="18" fill="#ffffff" text-anchor="middle">AI</text>
  
  <!-- Output document -->
  <path d="M470,350 L530,350" stroke="#f5f5f5" stroke-width="3" stroke-dasharray="5,5"/>
  
  <rect x="540" y="300" width="80" height="120" rx="5" fill="#f5f5f5"/>
  <line x1="555" y1="330" x2="605" y2="330" stroke="#293045" stroke-width="3"/>
  <line x1="555" y1="350" x2="605" y2="350" stroke="#293045" stroke-width="3"/>
  <line x1="555" y1="370" x2="605" y2="370" stroke="#293045" stroke-width="3"/>
</svg>
