<svg width="800" height="600" xmlns="http://www.w3.org/2000/svg">
  <rect width="800" height="600" fill="#1a1a2e"/>
  <rect x="100" y="100" width="600" height="400" rx="15" fill="#293045"/>
  <text x="400" y="200" font-family="Arial" font-size="32" fill="#ffffff" text-anchor="middle">Multi-Modal AI</text>
  <text x="400" y="250" font-family="Arial" font-size="18" fill="#a0a0c0" text-anchor="middle">Process text, images, and documents with multiple AI models</text>
  
  <!-- Document icon -->
  <rect x="175" y="300" width="100" height="140" rx="5" fill="#f5f5f5"/>
  <line x1="195" y1="330" x2="255" y2="330" stroke="#293045" stroke-width="3"/>
  <line x1="195" y1="350" x2="255" y2="350" stroke="#293045" stroke-width="3"/>
  <line x1="195" y1="370" x2="255" y2="370" stroke="#293045" stroke-width="3"/>
  
  <!-- Image icon -->
  <rect x="350" y="300" width="100" height="140" rx="5" fill="#f5f5f5"/>
  <circle cx="400" cy="340" r="20" fill="#6C63FF"/>
  <polygon points="375,390 425,390 410,360" fill="#41416b"/>
  
  <!-- Audio icon -->
  <rect x="525" y="300" width="100" height="140" rx="5" fill="#f5f5f5"/>
  <path d="M560,330 L560,375 A15,15 0 0,0 575,390 A15,15 0 0,0 590,375 L590,330" fill="none" stroke="#6C63FF" stroke-width="5"/>
  <line x1="560" y1="330" x2="590" y2="330" stroke="#6C63FF" stroke-width="5"/>
  <path d="M550,350 C530,350 530,355 550,355" stroke="#41416b" stroke-width="3" fill="none"/>
  <path d="M550,365 C520,365 520,375 550,375" stroke="#41416b" stroke-width="3" fill="none"/>
</svg>
